#!OML:ASF G:\JayActor3\Patient Classification 1\Patient 1\Session 6\male.ASF
:FULLY-SPECIFIED
:DEGREES
708
root 24.8115 16.7404 -11.264 2.27 -56.7326 4.8667
lowerback 2.36778 3.82898 12.5042
upperback -1.12988 5.4954 1.23086
thorax -1.47491 2.5795 -5.82754
lowerneck -7.39772 -1.29076 1.7085
upperneck 1.71771 -1.87261 -0.235912
head 1.77608 -0.928415 -0.434724
rclavicle -3.56818e-014 -9.54166e-015
rhumerus -20.421 2.46179 -85.7798
rradius 28.9684
rwrist 1.55911
rhand -20.2854 -5.38718
rfingers 7.12502
rthumb 6.06428 -35.2804
lclavicle -3.56818e-014 -9.54166e-015
lhumerus -54.2333 16.8462 77.6978
lradius 21.2059
lwrist 25.2064
lhand -10.601 8.40926
lfingers 7.12502
lthumb 15.4048 37.8153
rfemur 1.54147 -5.1047 26.9021
rtibia 13.9533
rfoot -25.3588 -20.2033
rtoes 5.40369
lfemur -36.8256 12.5172 -17.3944
ltibia 67.344
lfoot -12.3457 6.31315
ltoes -11.2339
709
root 24.7455 16.745 -11.2521 2.52225 -56.8605 4.60367
lowerback 2.40517 3.89739 12.5371
upperback -0.965671 5.57883 1.27641
thorax -1.30775 2.63748 -5.79209
lowerneck -7.40654 -1.32232 1.68211
upperneck 1.99439 -1.91316 -0.222136
head 1.86803 -0.946308 -0.429802
rclavicle 1.48492e-013 1.59028e-015
rhumerus -20.4736 2.15763 -85.8497
rradius 28.4667
rwrist 2.11163
rhand -20.1758 -5.33311
rfingers 7.12502
rthumb 6.17006 -35.2233
lclavicle 1.48492e-013 1.59028e-015
lhumerus -54.3583 17.051 77.8223
lradius 20.8982
lwrist 24.8039
lhand -10.0665 8.61768
lfingers 7.12502
lthumb 15.9196 37.9834
rfemur 2.07868 -4.59646 27.1977
rtibia 13.3221
rfoot -25.3656 -20.4507
rtoes 5.6784
lfemur -37.5977 12.4626 -17.859
ltibia 67.4357
lfoot -13.0183 6.79877
ltoes -11.2441
710
root 24.6792 16.7497 -11.2391 2.78723 -56.9954 4.33692
lowerback 2.4414 3.96694 12.5774
upperback -0.808834 5.66412 1.32239
thorax -1.14682 2.69553 -5.7602
lowerneck -7.42035 -1.35332 1.64449
upperneck 2.30562 -1.9524 -0.204458
head 1.97273 -0.963333 -0.422067
rclavicle 8.15017e-015 -4.77083e-015
rhumerus -20.5243 1.81236 -85.8961
rradius 27.9134
rwrist 2.7171
rhand -20.0705 -5.27295
rfingers 7.12502
rthumb 6.27174 -35.1601
lclavicle 8.15017e-015 -4.77083e-015
lhumerus -54.4861 17.2611 77.8958
lradius 20.5858
lwrist 24.3681
lhand -9.54702 8.80426
lfingers 7.12502
lthumb 16.4198 38.1293
rfemur 2.60148 -4.155 27.4819
rtibia 12.6935
rfoot -25.2929 -20.6822
rtoes 5.85606
lfemur -38.3189 12.3704 -18.3372
ltibia 67.4244
lfoot -13.6792 7.24681
ltoes -11.174
711
root 24.613 16.7544 -11.2245 3.05704 -57.1251 4.08135
lowerback 2.49563 4.03452 12.6331
upperback -0.680313 5.7522 1.35747
thorax -1.02291 2.75137 -5.75081
lowerneck -7.42175 -1.38409 1.61453
upperneck 2.66083 -1.9922 -0.184745
head 2.09007 -0.980236 -0.415281
rclavicle -3.97569e-016 -1.43125e-014
rhumerus -20.605 1.42587 -85.9269
rradius 27.3163
rwrist 3.36196
rhand -19.9767 -5.20547
rfingers 7.12502
rthumb 6.36228 -35.0899
lclavicle -3.97569e-016 -1.43125e-014
lhumerus -54.6415 17.4426 77.9206
lradius 20.2814
lwrist 23.9336
lhand -9.05444 8.98626
lfingers 7.12502
lthumb 16.894 38.2714
rfemur 3.0885 -3.83594 27.7329
rtibia 12.1006
rfoot -25.1398 -20.8402
rtoes 5.93723
lfemur -38.9841 12.2308 -18.8443
ltibia 67.2935
lfoot -14.3266 7.66597
ltoes -11.096
712
root 24.5466 16.7589 -11.2083 3.31499 -57.2434 3.85786
lowerback 2.57134 4.09849 12.691
upperback -0.586658 5.84185 1.37792
thorax -0.945874 2.80376 -5.76145
lowerneck -7.41532 -1.41977 1.57459
upperneck 3.06924 -2.03895 -0.144242
head 2.2244 -0.999778 -0.400859
rclavicle -9.50191e-014 -6.36111e-015
rhumerus -20.7288 0.997572 -85.9422
rradius 26.6861
rwrist 4.03692
rhand -19.9035 -5.13046
rfingers 7.12502
rthumb 6.43294 -35.0128
lclavicle -9.50191e-014 -6.36111e-015
lhumerus -54.8371 17.5975 77.8841
lradius 19.9869
lwrist 23.4903
lhand -8.61834 9.16451
lfingers 7.12502
lthumb 17.3138 38.4133
rfemur 3.53815 -3.63006 27.9406
rtibia 11.552
rfoot -24.9231 -20.9303
rtoes 5.92296
lfemur -39.5856 12.0469 -19.393
ltibia 67.0277
lfoot -14.9502 8.04884
ltoes -11.0962
713
root 24.4797 16.763 -11.1901 3.55609 -57.3435 3.672
lowerback 2.65818 4.15236 12.7477
upperback -0.523498 5.92252 1.38524
thorax -0.907699 2.84818 -5.78778
lowerneck -7.38855 -1.45149 1.5565
upperneck 3.51166 -2.08258 -0.108678
head 2.36682 -1.01743 -0.391694
rclavicle -3.10104e-014 1.59028e-015
rhumerus -20.8899 0.536766 -85.9418
rradius 26.0312
rwrist 4.75036
rhand -19.8273 -5.0633
rfingers 7.12502
rthumb 6.50654 -34.9434
lclavicle -3.10104e-014 1.59028e-015
lhumerus -55.0699 17.7218 77.7933
lradius 19.7111
lwrist 23.0733
lhand -8.2214 9.32845
lfingers 7.12502
lthumb 17.6958 38.5432
rfemur 3.95209 -3.57121 28.093
rtibia 11.0512
rfoot -24.6214 -20.9326
rtoes 5.76648
lfemur -40.1089 11.8058 -19.9858
ltibia 66.6138
lfoot -15.5496 8.38638
ltoes -11.2121
714
root 24.4107 16.7653 -11.1711 3.83231 -57.4441 3.4449
lowerback 2.74873 4.20263 12.8119
upperback -0.4744 6.00044 1.40146
thorax -0.887092 2.8894 -5.81003
lowerneck -7.35481 -1.48021 1.54946
upperneck 3.97936 -2.12385 -0.0750187
head 2.51711 -1.03365 -0.385096
rclavicle -3.65764e-014 3.81667e-014
rhumerus -21.0707 0.040311 -85.9171
rradius 25.3571
rwrist 5.50659
rhand -19.7188 -5.00985
rfingers 7.12502
rthumb 6.61124 -34.8867
lclavicle -3.65764e-014 3.81667e-014
lhumerus -55.3243 17.8226 77.6586
lradius 19.4593
lwrist 22.6823
lhand -7.87755 9.48668
lfingers 7.12502
lthumb 18.0267 38.6713
rfemur 4.35571 -3.47929 28.2733
rtibia 10.5936
rfoot -24.4014 -20.8931
rtoes 5.76968
lfemur -40.5385 11.5385 -20.5552
ltibia 66.0513
lfoot -16.1257 8.63491
ltoes -11.4361
715
root 24.34 16.766 -11.1505 4.10632 -57.5501 3.21377
lowerback 2.8821 4.25252 12.8849
upperback -0.460392 6.08804 1.41289
thorax -0.924351 2.9303 -5.84781
lowerneck -7.30419 -1.51384 1.53954
upperneck 4.48755 -2.17307 -0.0253654
head 2.67891 -1.05307 -0.373389
rclavicle -4.25399e-014 -3.97569e-014
rhumerus -21.3148 -0.528442 -85.8618
rradius 24.6749
rwrist 6.32709
rhand -19.5884 -4.96559
rfingers 7.12502
rthumb 6.73716 -34.8384
lclavicle -4.25399e-014 -3.97569e-014
lhumerus -55.6291 17.8672 77.4761
lradius 19.2376
lwrist 22.3274
lhand -7.57728 9.6388
lfingers 7.12502
lthumb 18.3155 38.7965
rfemur 4.75618 -3.40655 28.4454
rtibia 10.1805
rfoot -24.2029 -20.808
rtoes 5.76516
lfemur -40.8515 11.239 -21.1252
ltibia 65.3268
lfoot -16.6861 8.79593
ltoes -11.7817
716
root 24.2676 16.7647 -11.1282 4.38714 -57.6579 2.96793
lowerback 3.03267 4.29949 12.9677
upperback -0.462015 6.17639 1.42736
thorax -0.986876 2.96912 -5.8904
lowerneck -7.24875 -1.54961 1.5313
upperneck 5.01399 -2.22637 0.0241949
head 2.847 -1.07434 -0.362287
rclavicle 6.7388e-014 5.24792e-014
rhumerus -21.5936 -1.17335 -85.7647
rradius 23.9886
rwrist 7.24346
rhand -19.3879 -4.94366
rfingers 7.12502
rthumb 6.93076 -34.8102
lclavicle 6.7388e-014 5.24792e-014
lhumerus -55.9587 17.8881 77.2469
lradius 19.0452
lwrist 22.0045
lhand -7.30752 9.79218
lfingers 7.12502
lthumb 18.575 38.9253
rfemur 5.15231 -3.77482 28.5772
rtibia 9.82084
rfoot -23.8155 -20.2925
rtoes 5.88594
lfemur -41.0411 10.8983 -21.6836
ltibia 64.4372
lfoot -17.2459 8.84608
ltoes -12.1595
717
root 24.1938 16.7615 -11.1041 4.67388 -57.7703 2.7113
lowerback 3.20252 4.34286 13.0593
upperback -0.48353 6.26543 1.44171
thorax -1.08015 3.0053 -5.94099
lowerneck -7.18641 -1.58343 1.53289
upperneck 5.55942 -2.27927 0.0750961
head 3.02133 -1.09501 -0.352527
rclavicle -1.04958e-013 -1.11319e-014
rhumerus -21.92 -1.89355 -85.6322
rradius 23.3048
rwrist 8.23823
rhand -19.1709 -4.91139
rfingers 7.12502
rthumb 7.14014 -34.7709
lclavicle -1.04958e-013 -1.11319e-014
lhumerus -56.323 17.8965 76.949
lradius 18.8846
lwrist 21.7157
lhand -7.09606 9.96781
lfingers 7.12502
lthumb 18.7784 39.0814
rfemur 5.52126 -4.13667 28.6993
rtibia 9.54375
rfoot -23.4648 -19.7507
rtoes 5.97614
lfemur -41.1053 10.5235 -22.236
ltibia 63.3766
lfoot -17.8021 8.80501
ltoes -12.6045
718
root 24.1182 16.7564 -11.078 4.9659 -57.8912 2.45086
lowerback 3.36754 4.38928 13.158
upperback -0.511296 6.3589 1.45855
thorax -1.1758 3.043 -5.99308
lowerneck -7.13129 -1.62113 1.51752
upperneck 6.10991 -2.33746 0.132325
head 3.20026 -1.11835 -0.338148
rclavicle -5.42682e-014 3.02153e-014
rhumerus -22.2799 -2.70062 -85.4462
rradius 22.6331
rwrist 9.31377
rhand -18.9438 -4.86228
rfingers 7.12502
rthumb 7.35941 -34.7143
lclavicle -5.42682e-014 3.02153e-014
lhumerus -56.6935 17.8778 76.627
lradius 18.761
lwrist 21.4833
lhand -6.90438 10.1343
lfingers 7.12502
lthumb 18.9628 39.23
rfemur 5.84478 -4.48744 28.8052
rtibia 9.37008
rfoot -23.1265 -19.1999
rtoes 5.98892
lfemur -41.0455 10.1298 -22.7887
ltibia 62.144
lfoot -18.3668 8.65718
ltoes -13.0757
719
root 24.0404 16.75 -11.0502 5.27383 -58.0253 2.17818
lowerback 3.49356 4.44156 13.2545
upperback -0.52622 6.45292 1.48512
thorax -1.23689 3.08355 -6.02959
lowerneck -7.09628 -1.65615 1.50788
upperneck 6.64874 -2.3925 0.170898
head 3.38012 -1.14075 -0.330848
rclavicle 4.87022e-014 -9.54166e-015
rhumerus -22.6353 -3.5669 -85.2016
rradius 21.9708
rwrist 10.4435
rhand -18.7023 -4.80089
rfingers 7.12502
rthumb 7.59254 -34.6446
lclavicle 4.87022e-014 -9.54166e-015
lhumerus -57.0452 17.8538 76.2856
lradius 18.6739
lwrist 21.3042
lhand -6.71823 10.2944
lfingers 7.12502
lthumb 19.1418 39.3724
rfemur 6.12071 -4.82173 28.8997
rtibia 9.29509
rfoot -22.8007 -18.6355
rtoes 5.91697
lfemur -40.8606 9.72718 -23.3297
ltibia 60.7476
lfoot -18.9698 8.37131
ltoes -13.4189
720
root 23.96 16.7422 -11.0209 5.60812 -58.1793 1.8882
lowerback 3.56064 4.50456 13.3458
upperback -0.520043 6.54958 1.52353
thorax -1.24356 3.12973 -6.04402
lowerneck -7.09838 -1.69295 1.48793
upperneck 7.17285 -2.44984 0.205233
head 3.56353 -1.16472 -0.323641
rclavicle -2.32578e-014 1.11319e-014
rhumerus -22.9642 -4.46871 -84.8984
rradius 21.318
rwrist 11.5856
rhand -18.4439 -4.73507
rfingers 7.12502
rthumb 7.84187 -34.5696
lclavicle -2.32578e-014 1.11319e-014
lhumerus -57.3611 17.8218 75.9426
lradius 18.6245
lwrist 21.1741
lhand -6.54658 10.4472
lfingers 7.12502
lthumb 19.3069 39.5088
rfemur 6.36366 -5.13417 28.986
rtibia 9.27936
rfoot -22.4506 -18.0848
rtoes 5.6652
lfemur -40.5619 9.33518 -23.8606
ltibia 59.1988
lfoot -19.6022 7.98156
ltoes -13.6915
721
root 23.8757 16.7323 -10.9905 5.94741 -58.3177 1.57644
lowerback 3.57947 4.5639 13.4265
upperback -0.490549 6.63093 1.57765
thorax -1.2042 3.17232 -6.03021
lowerneck -7.13103 -1.72822 1.47627
upperneck 7.67483 -2.50531 0.220749
head 3.74627 -1.1884 -0.324276
rclavicle 5.50634e-014 3.02153e-014
rhumerus -23.274 -5.39176 -84.5422
rradius 20.6786
rwrist 12.7148
rhand -18.1708 -4.67713
rfingers 7.12502
rthumb 8.10552 -34.5017
lclavicle 5.50634e-014 3.02153e-014
lhumerus -57.6539 17.7765 75.5891
lradius 18.6172
lwrist 21.0828
lhand -6.34233 10.5785
lfingers 7.12502
lthumb 19.5032 39.6204
rfemur 6.63747 -5.45957 29.0777
rtibia 9.26816
rfoot -22.0773 -17.5478
rtoes 5.24809
lfemur -40.1261 8.94444 -24.3688
ltibia 57.517
lfoot -20.2479 7.52926
ltoes -14.0296
